<svg width="170" height="73" viewBox="0 0 170 73" fill="none" xmlns="http://www.w3.org/2000/svg">
<rect x="1" y="1" width="168" height="71" stroke="white" stroke-opacity="0.878481" stroke-width="2"/>
<path d="M22.84 54V20.4H43.336V24.528H27.4V34.368H40.072V38.496H27.4V49.872H43.768V54H22.84ZM53.9781 54.48C52.5221 54.48 51.2501 54.184 50.1621 53.592C49.0741 53 48.2261 52.192 47.6181 51.168C47.0261 50.144 46.7301 48.976 46.7301 47.664C46.7301 46.336 47.0181 45.2 47.5941 44.256C48.1861 43.296 48.9701 42.504 49.9461 41.88C50.9381 41.24 52.0421 40.736 53.2581 40.368C54.4741 39.984 55.7301 39.712 57.0261 39.552C58.3381 39.376 59.5941 39.28 60.7941 39.264C60.7941 37.024 60.3541 35.56 59.4741 34.872C58.5941 34.184 57.3221 33.84 55.6581 33.84C54.7781 33.84 53.8341 33.976 52.8261 34.248C51.8341 34.52 50.7141 35.088 49.4661 35.952L48.8421 32.448C49.7861 31.728 50.9621 31.144 52.3701 30.696C53.7781 30.232 55.2581 30 56.8101 30C58.7941 30 60.3941 30.352 61.6101 31.056C62.8261 31.744 63.7141 32.912 64.2741 34.56C64.8341 36.208 65.1141 38.448 65.1141 41.28V46.08C65.1141 47.2 65.1621 48.128 65.2581 48.864C65.3701 49.584 65.6101 50.128 65.9781 50.496C66.3621 50.848 66.9701 51.024 67.8021 51.024H68.2341L67.5621 54.48H67.2261C65.8341 54.48 64.7541 54.344 63.9861 54.072C63.2341 53.8 62.6581 53.408 62.2581 52.896C61.8581 52.384 61.4981 51.76 61.1781 51.024C60.2981 52.048 59.2581 52.88 58.0581 53.52C56.8581 54.16 55.4981 54.48 53.9781 54.48ZM54.7941 51.024C55.9461 51.024 57.0581 50.736 58.1301 50.16C59.2181 49.584 60.1061 48.816 60.7941 47.856V42.24C58.5061 42.32 56.6501 42.544 55.2261 42.912C53.8181 43.28 52.7861 43.832 52.1301 44.568C51.4741 45.304 51.1461 46.256 51.1461 47.424C51.1461 48.688 51.4821 49.608 52.1541 50.184C52.8421 50.744 53.7221 51.024 54.7941 51.024ZM78.2406 54.48C76.1606 54.48 74.4326 54.232 73.0566 53.736C71.6966 53.24 70.7366 52.8 70.1766 52.416L70.7046 48.24C71.2166 48.688 72.1206 49.2 73.4166 49.776C74.7126 50.352 76.2566 50.64 78.0486 50.64C79.5686 50.64 80.7286 50.384 81.5286 49.872C82.3446 49.36 82.7526 48.64 82.7526 47.712C82.7526 46.896 82.4886 46.24 81.9606 45.744C81.4486 45.232 80.8246 44.832 80.0886 44.544C79.3686 44.24 78.6886 44 78.0486 43.824C76.9766 43.536 75.8646 43.176 74.7126 42.744C73.5766 42.296 72.6166 41.632 71.8326 40.752C71.0486 39.872 70.6566 38.64 70.6566 37.056C70.6566 35.856 70.9446 34.72 71.5206 33.648C72.0966 32.56 73.0326 31.68 74.3286 31.008C75.6246 30.336 77.3446 30 79.4886 30C81.0566 30 82.3286 30.168 83.3046 30.504C84.2966 30.824 85.1526 31.168 85.8726 31.536L85.3446 35.472C84.6566 34.896 83.8566 34.408 82.9446 34.008C82.0326 33.608 80.9126 33.408 79.5846 33.408C78.2406 33.408 77.1446 33.664 76.2966 34.176C75.4486 34.672 75.0246 35.472 75.0246 36.576C75.0246 37.68 75.4726 38.464 76.3686 38.928C77.2806 39.392 78.6566 39.904 80.4966 40.464C81.0726 40.624 81.7366 40.856 82.4886 41.16C83.2566 41.464 84.0006 41.872 84.7206 42.384C85.4406 42.896 86.0326 43.568 86.4966 44.4C86.9766 45.216 87.2166 46.24 87.2166 47.472C87.2166 48.512 86.9686 49.576 86.4726 50.664C85.9766 51.736 85.0806 52.64 83.7846 53.376C82.4886 54.112 80.6406 54.48 78.2406 54.48ZM93.2196 65.616L98.6436 52.944L88.8516 30.48H93.6516L100.996 47.952L107.62 30.48H112.42L98.0196 65.616H93.2196ZM133.918 44.304L136.51 41.664L147.07 52.032L144.478 54.672L133.918 44.304ZM131.23 54.672C128.03 54.672 125.182 53.96 122.686 52.536C120.19 51.096 118.23 49.072 116.806 46.464C115.382 43.84 114.67 40.752 114.67 37.2C114.67 33.648 115.382 30.568 116.806 27.96C118.23 25.336 120.19 23.312 122.686 21.888C125.182 20.448 128.03 19.728 131.23 19.728C134.43 19.728 137.278 20.448 139.774 21.888C142.27 23.312 144.23 25.336 145.654 27.96C147.078 30.568 147.79 33.648 147.79 37.2C147.79 40.752 147.078 43.84 145.654 46.464C144.23 49.072 142.27 51.096 139.774 52.536C137.278 53.96 134.43 54.672 131.23 54.672ZM131.23 50.256C133.806 50.256 135.958 49.68 137.686 48.528C139.414 47.36 140.71 45.792 141.574 43.824C142.454 41.84 142.894 39.632 142.894 37.2C142.894 34.768 142.454 32.568 141.574 30.6C140.71 28.616 139.414 27.048 137.686 25.896C135.958 24.728 133.806 24.144 131.23 24.144C128.654 24.144 126.502 24.728 124.774 25.896C123.046 27.048 121.742 28.616 120.862 30.6C119.998 32.568 119.566 34.768 119.566 37.2C119.566 39.632 119.998 41.84 120.862 43.824C121.742 45.792 123.046 47.36 124.774 48.528C126.502 49.68 128.654 50.256 131.23 50.256Z" fill="white"/>
</svg>
