<svg width="928" height="673" viewBox="0 0 928 673" fill="none" xmlns="http://www.w3.org/2000/svg">
<path d="M922.522 357.922L767.856 645.547C759.156 661.876 741.272 672.062 720.328 672.062H103.111C46.1583 672.062 0 629.128 0 576.188V96.8125C0 43.8715 46.1583 0.9375 103.111 0.9375H292.417C319.757 0.9375 345.986 11.0373 365.336 29.0259L444.506 96.8125H670.222C727.175 96.8125 773.333 139.747 773.333 192.688V240.625H696V192.688C696 179.469 684.435 168.719 670.222 168.719H412.444L310.622 79.8696C305.789 75.3305 299.344 72.8438 292.417 72.8438H103.111C88.9011 72.8438 77.3333 83.5997 77.3333 96.8125V528.25L191.98 315.078C200.744 298.749 218.628 288.562 238.122 288.562H876.444C914.628 288.562 939.6 326.014 922.522 357.922Z" fill="url(#paint0_linear_109_15)"/>
<defs>
<linearGradient id="paint0_linear_109_15" x1="126" y1="142" x2="1116.5" y2="672" gradientUnits="userSpaceOnUse">
<stop stop-color="#3F51B5"/>
<stop offset="1" stop-color="#00B2FF"/>
</linearGradient>
</defs>
</svg>
