<svg width="321" height="340" viewBox="0 0 321 340" fill="none" xmlns="http://www.w3.org/2000/svg">
<g clip-path="url(#clip0_65_259)">
<path d="M92.9277 323.08L99.8433 324.749L111.078 303.921L100.872 301.457L92.9277 323.08Z" fill="#A0616A"/>
<path d="M101.508 321.663L101.501 321.661L93.9789 320.233L93.9721 320.231L92.2299 319.902L86.2421 332.312L85.9199 332.976L90.8333 334.166L91.2374 333.524L93.088 330.614L93.7943 334.144L93.9458 334.913L106.967 338.062C107.741 338.249 108.542 338.172 109.215 337.887C109.937 337.598 110.514 337.071 110.758 336.392C112.071 334.444 102.9 327.329 101.958 325.807L103.357 322.009L101.508 321.663Z" fill="white"/>
<path d="M137.225 255.053L136.42 256.736L134.077 261.623L108.948 313.666L91.2819 310.145C94.6068 290.482 96.9557 278.305 105.35 267.843C107.674 264.943 110.47 262.173 113.875 259.41C113.875 259.41 100.463 259.377 84.7111 259.116C83.3287 259.093 81.9234 259.07 80.5065 259.038C67.4659 258.79 53.5267 258.383 44.5724 257.708C39.124 257.298 35.3625 255.188 32.8968 252.22C25.8399 243.77 29.2006 228.345 33.5624 225.408L63.0472 215.903L74.9377 233.233L76.1818 235.043L120.469 237.559C126.93 237.926 132.421 241.527 134.213 246.573L137.225 255.053H137.225Z" fill="white"/>
<path d="M19.7093 0L17.5469 286.892L321 244.238V0H19.7093ZM69.6843 243.069H21.1508V203.726H69.6843V243.069ZM69.6843 202.558H21.1508V163.214H69.6843V202.558ZM69.6843 162.046H21.1508V122.703H69.6843V162.046ZM69.6843 121.535H21.1508V82.1915H69.6843V121.535ZM69.6843 81.0229H21.1508V41.6802H69.6843V81.0229ZM69.6843 40.5116H21.1508V40.5116C21.1508 18.783 42.88 1.1686 69.6842 1.1686H69.6843V40.5116V40.5116ZM119.659 243.069H71.1259V203.726H119.659V243.069ZM119.659 202.558H71.1259V163.214H119.659V202.558ZM119.659 162.046H71.1259V122.703H119.659V162.046ZM119.659 121.535H71.1259V82.1915H119.659V121.535ZM119.659 81.0229H71.1259V81.0229C71.1259 59.2945 92.8548 41.6802 119.659 41.6802H119.659V81.0229ZM119.659 40.5116H71.1259V1.1686H119.659V40.5116V40.5116ZM169.634 243.069H121.101V203.726H169.634V243.069ZM169.634 202.558H121.101V163.214H169.634V202.558ZM169.634 162.046H121.101V122.703H169.634V162.046ZM169.634 121.535H121.101V82.1915H169.634V121.535ZM169.634 81.0229H121.101V41.6802H169.634V81.0229V81.0229ZM169.634 40.5116H121.101V1.1686H169.634V40.5116V40.5116ZM219.609 243.069H171.076V203.726H219.609V243.069ZM219.609 202.558H171.076V163.214H219.609V202.558ZM219.609 162.046H171.076V122.703H219.609V162.046ZM219.609 121.535H171.076V82.1915H219.609V121.535ZM219.609 81.0229H171.076V41.6802H219.609V81.0229V81.0229ZM219.609 40.5116H171.076V1.1686H219.609V40.5116V40.5116ZM269.584 243.069H269.584C242.78 243.069 221.051 225.455 221.051 203.726V203.726H269.584V243.069ZM269.584 202.558H221.051V163.214H269.584V202.558ZM269.584 162.046H221.051V122.703H269.584V162.046ZM269.584 121.535H221.051V82.1915H269.584V121.535ZM269.584 81.0229H221.051V41.6802H269.584V81.0229V81.0229ZM269.584 40.5116H221.051V1.1686H269.584V40.5116V40.5116ZM271.026 243.069H271.025V203.726H319.559V203.726C319.559 225.455 297.83 243.069 271.026 243.069ZM319.559 202.558H271.025V163.214H319.559V202.558ZM319.559 162.046H271.025V122.703H319.559V162.046ZM319.559 121.535H271.025V82.1915H319.559V121.535ZM319.559 81.0229H271.025V81.0229C271.025 59.2945 292.754 41.6802 319.558 41.6802H319.559V81.0229ZM319.559 40.5116H271.025V1.1686H319.559V40.5116V40.5116Z" fill="#EAE6E6"/>
<path d="M103.611 123.148L97.6872 136.518L87.793 134.841L94.6763 120.885C94.4857 120.453 94.3683 119.991 94.34 119.509C94.186 116.886 96.6846 114.658 99.9206 114.533C103.157 114.409 105.905 116.434 106.059 119.057C106.157 120.73 105.174 122.239 103.611 123.148H103.611Z" fill="#A0616A"/>
<path d="M104.595 126.775L91.1826 156.013L89.2442 160.231C87.4941 164.047 82.6765 166.331 77.7112 165.705L46.562 161.759L44.2598 150.184L77.8611 152.582L83.4797 140.634L90.9344 124.776L92.6355 125.023L102.162 126.417L104.595 126.775V126.775Z" fill="#00B2FF"/>
<path d="M46.3027 321.557L52.1021 325.037L71.4226 308.561L62.8633 303.424L46.3027 321.557Z" fill="#A0616A"/>
<path d="M53.6454 326.619L56.5563 323.432L54.9628 322.592L48.4847 319.166L46.9831 318.375L36.1362 328.389L35.5547 328.926L39.6723 331.398L40.3237 330.909L43.2809 328.685L42.4659 332.195L42.2851 332.966L53.2019 339.518C53.8538 339.91 54.6357 340.059 55.3842 339.979C56.1899 339.903 56.9523 339.567 57.4713 338.999C59.5254 337.531 53.8913 328.311 53.6455 326.619H53.6454Z" fill="white"/>
<path d="M171.075 203.337C116.227 203.337 71.6055 167.165 71.6055 122.703C71.6055 78.2416 116.227 42.0697 171.075 42.0697C225.922 42.0697 270.544 78.2418 270.544 122.703C270.544 167.165 225.922 203.337 171.075 203.337ZM171.075 43.2383C117.022 43.2383 98.9956 77.1332 98.9956 120.95C98.9956 164.767 117.022 202.168 171.075 202.168C225.127 202.168 269.102 166.52 269.102 122.703C269.102 78.8864 225.127 43.2383 171.075 43.2383Z" fill="white"/>
<path d="M218.201 119.447L174.12 83.7135C173.992 83.5769 173.856 83.4437 173.702 83.3191C172.779 82.5704 171.566 82.2008 170.355 82.208C169.145 82.2008 167.931 82.5704 167.008 83.3191C166.854 83.4437 166.718 83.5769 166.59 83.7135L122.509 119.447C120.679 120.93 120.679 123.335 122.509 124.818C124.339 126.302 127.305 126.302 129.135 124.818L165.67 95.2016V158.053C165.67 160.151 167.768 161.851 170.355 161.851C172.943 161.851 175.04 160.151 175.04 158.053V95.2016L211.575 124.818C213.405 126.302 216.372 126.302 218.201 124.818C220.031 123.335 220.031 120.93 218.201 119.447Z" fill="#00B2FF"/>
<path d="M56.4699 199.831L63.5757 218.616L31.2422 221.45L42.7749 197.494L56.4699 199.831Z" fill="#A0616A"/>
<path d="M117.016 272.284L115.553 273.646L111.3 277.595L65.8395 319.613L50.7029 311.432C62.077 293.857 69.393 283.053 81.6753 275.527C85.0775 273.441 88.8689 271.606 93.2296 269.947C93.2296 269.947 80.6302 266.219 65.926 261.632C64.6358 261.229 63.324 260.82 62.0049 260.399C49.8452 256.572 36.907 252.348 28.7692 249.245C23.8174 247.358 21.1649 244.337 20.0909 240.866C16.9987 230.974 26.6285 217.395 31.9623 215.835L63.6772 215.023L67.5911 234.597L68.0019 236.642C68.0019 236.642 79.6211 241.194 91.8169 245.745C93.6477 246.423 95.4857 247.107 97.3021 247.773C100.185 248.824 102.996 249.841 105.606 250.759C105.665 250.779 105.725 250.8 105.785 250.821C113.346 253.469 118.053 259.67 117.505 266.333L117.016 272.284Z" fill="white"/>
<path d="M64.384 185.293C63.6127 189.758 63.4325 193.976 64.3984 196.325C64.6552 196.95 68.501 201.515 68.7232 202.168C70.7084 208.001 62.2361 209.18 62.2361 209.18L29.7334 217.927C27.8618 218.431 26.2863 216.673 27.4821 215.402C30.148 212.568 32.5832 208.473 32.4097 203.05C32.1393 194.599 27.5257 181.159 24.9755 174.325C23.9261 171.513 24.1792 168.491 25.6819 165.817L29.3103 159.362L34.5865 149.984L36.2876 143.154L51.4242 143.738L53.2911 149.295L67.3753 166.724C67.9447 167.431 68.3195 168.22 68.4853 169.032C68.7088 170.049 68.6007 171.112 68.161 172.112C66.6978 175.436 65.2057 180.502 64.384 185.293H64.384Z" fill="#00B2FF"/>
<path d="M152.684 163.806L135.433 166.312L132.293 158.523L150.647 156.4C151.014 156.051 151.449 155.738 151.951 155.478C154.679 154.061 158.307 154.706 160.054 156.918C161.802 159.129 161.006 162.07 158.278 163.486C156.538 164.39 154.434 164.451 152.684 163.806Z" fill="#A0616A"/>
<path d="M37.1426 163.711L39.3297 165.616C44.6334 170.235 51.9025 173.05 59.6678 173.491L88.6743 175.14L142.55 166.929L139.269 156.489L88.3389 163.604L37.1426 163.711H37.1426Z" fill="#00B2FF"/>
<path d="M0.00689517 133.687C-0.149228 139.133 2.36135 144.406 5.968 149.037C7.0396 146.333 8.96608 143.872 10.9752 141.527C9.92632 146.552 11.0748 151.843 14.0446 156.333C14.1558 156.396 14.2604 156.452 14.3731 156.504C17.3129 157.937 21.04 158.518 24.2203 157.482C17.6494 151.741 16.8132 142.228 22.3221 135.787C23.8818 133.96 25.8989 132.344 26.865 130.264C28.3902 126.946 26.924 123.292 25.9991 119.833C25.1342 116.613 24.9828 112.781 27.6476 110.422C27.1004 109.787 26.0611 109.349 25.0811 109.464C23.4381 109.652 22.2422 110.809 21.4805 112.002C20.7188 113.194 20.2165 114.515 19.155 115.545C17.1892 117.473 13.8416 117.929 11.0204 118.944C4.18827 121.411 0.170673 127.627 0.00689517 133.687Z" fill="#2F2E41"/>
<path d="M57.5164 130.573C57.126 129.465 59.817 136.237 58.5185 136.359C52.6041 136.909 44.4853 139.772 40.366 141.108C40.1805 141.091 39.995 141.073 39.815 141.051C39.3731 141.012 38.942 140.955 38.5165 140.89C28.9248 139.419 25.2363 127.475 25.2363 127.366C25.2363 126.829 26.826 112.081 29.3303 111.863C29.9796 111.806 30.6398 111.776 31.3109 111.776H37.5253C38.8456 111.549 40.155 111.392 41.4263 111.317H41.4372C53.9478 110.545 63.8123 116.726 62.8902 124.248C62.8847 124.256 62.8738 124.265 62.8684 124.274C62.601 124.597 62.3664 124.903 62.1591 125.195C61.9572 125.47 61.7881 125.732 61.6408 125.981C60.5005 127.902 63.4316 130.318 61.488 130.77C58.903 131.37 68.2867 151.09 58.0549 151.09C63.0319 152.238 58.5934 133.629 57.5164 130.573L57.5164 130.573Z" fill="#2F2E41"/>
<path d="M46.3481 142.145C54.4741 142.145 61.0614 136.805 61.0614 130.217C61.0614 123.63 54.4741 118.29 46.3481 118.29C38.2222 118.29 31.6348 123.63 31.6348 130.217C31.6348 136.805 38.2222 142.145 46.3481 142.145Z" fill="#A0616A"/>
<path d="M62.8901 124.898C62.6445 125.003 62.4045 125.099 62.159 125.195C61.9025 125.295 61.6461 125.396 61.3897 125.488C56.4629 127.299 52.4527 127.5 50.0193 124.898C49.9539 123.536 49.5774 122.183 48.9009 120.926C49.0264 122.318 48.5571 123.737 47.6023 124.898H42.7029C37.6561 127.613 35.0645 127.897 38.5672 136.811C39.5438 139.295 43.4271 153.749 41.8994 155.892C41.4575 155.853 36.7558 140.022 36.3303 139.956C26.7386 138.485 20.6443 125.675 21.4245 124.951C21.4245 122.82 22.0355 120.808 23.1322 119.009C24.5507 116.674 26.7823 114.709 29.5375 113.361C31.1634 112.719 32.8766 112.199 34.6553 111.802C34.6989 111.793 34.7371 111.785 34.7807 111.776C35.3209 111.658 35.8719 111.549 36.423 111.457C37.5524 111.265 38.6981 111.121 39.8712 111.034C39.953 111.029 40.0349 111.025 40.1113 111.025C40.5914 111.025 41.0388 111.134 41.4261 111.318C41.4316 111.318 41.4316 111.322 41.4371 111.322C41.7208 111.457 41.9717 111.636 42.1682 111.85C42.5064 112.199 42.7029 112.636 42.7029 113.112H48.1589C48.3607 113.112 48.5626 113.116 48.7645 113.125C56.3647 113.369 62.4754 118.215 62.8683 124.274C62.8846 124.484 62.8901 124.689 62.8901 124.898L62.8901 124.898Z" fill="#2F2E41"/>
<path d="M40.4138 113.228C40.4138 117.567 36.074 121.085 30.7206 121.085C25.3672 121.085 21.0273 117.567 21.0273 113.228C21.0273 108.888 25.3672 105.37 30.7206 105.37C36.074 105.37 40.4138 108.888 40.4138 113.228Z" fill="#2F2E41"/>
</g>
<defs>
<clipPath id="clip0_65_259">
<rect width="321" height="340" fill="white"/>
</clipPath>
</defs>
</svg>
