<svg width="397" height="305" viewBox="0 0 397 305" fill="none" xmlns="http://www.w3.org/2000/svg">
<path d="M348.731 295.967L340.478 295.967L336.552 265.266L348.733 265.267L348.731 295.967Z" fill="#FFB6B6"/>
<path d="M349.021 304.27L323.642 304.27V303.96C323.642 298.699 328.064 294.434 333.52 294.434H333.521L338.156 291.042L346.806 294.434L349.021 294.434L349.021 304.27Z" fill="#2F2E41"/>
<path d="M312.142 295.967L303.889 295.967L299.963 265.266L312.144 265.267L312.142 295.967Z" fill="#FFB6B6"/>
<path d="M312.432 304.27L287.053 304.27V303.96C287.053 298.699 291.476 294.434 296.931 294.434H296.932L301.568 291.042L310.217 294.434L312.433 294.434L312.432 304.27Z" fill="#2F2E41"/>
<path d="M308.209 124.636L355.825 125.602C355.825 125.602 364.385 139.137 357.849 158.23L358.581 163.547L355.574 171.765L354.071 196.9L355.574 200.767L354.572 208.018C354.572 208.018 358.581 255.872 348.557 280.04L336.528 279.557L332.017 216.499L334.523 211.885L334.022 209.951L328.007 180.949L321.993 195.933V204.259L316.479 210.434C316.479 210.434 318.484 267.472 312.971 279.073H299.503L294.426 201.734L299.438 156.78L298.436 153.88L299.939 152.43L298.937 147.596L308.209 124.636L308.209 124.636Z" fill="#2F2E41"/>
<path d="M328.508 36.4202L343.044 33.0366L347.053 42.2207C347.053 42.2207 367.799 52.8549 368.801 67.3561C368.801 67.3561 371.613 78.9571 369.107 84.2742C366.601 89.5913 356.075 106.509 356.075 106.509C356.075 106.509 365.598 135.995 363.092 137.445C360.586 138.895 300.941 135.995 300.941 133.095C300.941 130.195 310.868 99.7421 310.868 99.7421L312.971 47.5378L326.503 42.7041L328.508 36.4202L328.508 36.4202V36.4202Z" fill="#00B2FF"/>
<path d="M367.258 155.41C364.216 153.931 362.993 150.354 364.525 147.42C364.68 147.125 364.861 146.853 365.057 146.594L356.969 93.115L368.166 93.4604L374.024 145.567C376.147 147.304 376.851 150.271 375.543 152.774C374.01 155.708 370.301 156.888 367.258 155.41H367.258Z" fill="#FFB6B6"/>
<path d="M261.011 130.169C259.786 127.104 261.37 123.661 264.549 122.48C264.869 122.361 265.193 122.276 265.518 122.211L296.763 77.3464L304.82 84.8541L272.877 127.258C273.241 129.919 271.697 132.574 268.984 133.581C265.806 134.763 262.236 133.235 261.011 130.169V130.169Z" fill="#FFB6B6"/>
<path d="M346.854 79.6261C343.691 69.1439 348.945 58.4494 360.265 58.501C363.537 58.516 366.079 59.4316 366.784 61.9662C369.25 70.837 370.594 84.2277 370.594 84.2277L373.519 98.4847L371.748 101.445L375.441 110.999L373.65 115.519L373.262 138.602L364.24 138.119L354.3 120.522L350.499 118.342C350.499 118.342 353.551 89.8906 347.48 81.6987L346.854 79.6261H346.854V79.6261Z" fill="#00B2FF"/>
<path d="M306.444 53.8292C311.719 44.1698 325.225 41.8818 333.33 49.5034C335.673 51.7063 336.842 54.068 335.523 56.363C330.906 64.3957 320.205 73.0445 320.205 73.0445L307.026 93.4763L303.619 94.4185L299.393 103.765L290.338 114.034L278.343 120.134L271.326 113.367L272.816 104.668L290.874 81.464C290.874 81.464 303.866 65.6987 305.401 55.739L306.444 53.8292V53.8291V53.8292Z" fill="#00B2FF"/>
<path d="M331.27 33.5951C331.602 33.6335 331.933 33.6624 332.263 33.6769C333.287 33.7311 334.299 33.6748 335.274 33.5153C338.238 33.0572 340.93 31.7036 343.007 29.7185C345.203 27.6239 346.707 24.8282 347.113 21.6454C348.065 14.1328 342.518 7.28926 334.728 6.3713C327.049 5.46119 320.05 10.6403 318.933 17.9805C318.915 18.0942 318.897 18.203 318.885 18.3161C317.933 25.8336 323.475 32.6728 331.27 33.595V33.5951V33.5951Z" fill="#FFB6B6"/>
<path d="M315.73 17.4776C317.748 18.44 321.045 15.4145 322.308 17.1552C322.513 16.779 322.74 16.4152 322.963 16.0712C323.166 15.7633 323.456 15.1061 323.791 14.9936C323.367 15.9807 323.46 17.3177 323.9 18.4631C325.891 19.1804 328.497 17.5926 330.339 15.7146C333.232 12.7699 337.956 20.3211 336.839 24.2289C338.26 22.555 341.345 23.4991 342.39 25.4131C343.434 27.3223 341.669 28.8521 341.292 30.9817L344.141 30.6327C345.939 28.944 345.813 26.0984 347.294 24.1412C349.767 20.8657 350.725 17.5236 348.866 14.1432C347.217 11.1541 347.063 7.28571 344.038 5.56245C345.36 4.93921 340.659 5.91287 341.915 3.88178C343.176 1.85495 336.454 1.60894 336.015 2.69481C334.094 0.477787 332.157 -0.983938 329.794 0.792527C327.474 2.54029 327.714 4.37738 324.988 4.21275C323.709 4.13633 323.85 6.43589 323.09 7.43846C322.334 8.43567 319.396 9.07584 319.253 8.96912C318.477 8.38357 315.836 13.3683 315.836 13.3683C315.836 13.3683 313.696 16.5024 315.73 17.4776H315.73Z" fill="#2F2E41"/>
<path d="M137.876 104.48C185.624 104.48 224.331 141.809 224.331 187.857C224.331 233.906 185.624 271.235 137.876 271.235C90.1276 271.235 24.0461 225.58 51.4201 187.857C78.7942 150.135 90.1276 104.48 137.876 104.48Z" fill="#F2F2F2"/>
<path d="M253.59 108.446C252.815 108.446 252.185 109.054 252.185 109.802V153.186C252.185 153.933 252.815 154.541 253.59 154.541C254.366 154.541 254.996 153.933 254.996 153.186V109.802C254.996 109.054 254.366 108.446 253.59 108.446Z" fill="#3F3D56"/>
<path d="M17.4185 75.9087C16.6432 75.9087 16.0127 76.5167 16.0127 77.2644V88.1103C16.0127 88.858 16.6432 89.466 17.4185 89.466C18.1938 89.466 18.8243 88.858 18.8243 88.1103V77.2644C18.8243 76.5167 18.1938 75.9087 17.4185 75.9087Z" fill="#3F3D56"/>
<path d="M17.4185 108.446C16.6432 108.446 16.0127 109.054 16.0127 109.802V130.816C16.0127 131.564 16.6432 132.172 17.4185 132.172C18.1938 132.172 18.8243 131.564 18.8243 130.816V109.802C18.8243 109.054 18.1938 108.446 17.4185 108.446Z" fill="#3F3D56"/>
<path d="M17.4185 138.272C16.6432 138.272 16.0127 138.88 16.0127 139.628V160.642C16.0127 161.39 16.6432 161.998 17.4185 161.998C18.1938 161.998 18.8243 161.39 18.8243 160.642V139.628C18.8243 138.88 18.1938 138.272 17.4185 138.272Z" fill="#3F3D56"/>
<path d="M143.499 33.203C142.723 33.203 142.093 33.811 142.093 34.5587V55.5726C142.093 56.3203 142.723 56.9283 143.499 56.9283C144.274 56.9283 144.904 56.3203 144.904 55.5726V34.5587C144.904 33.811 144.274 33.203 143.499 33.203Z" fill="#3F3D56"/>
<path d="M358.862 293.251C360.314 293.338 361.116 291.598 360.018 290.584L359.908 290.165C359.923 290.132 359.937 290.098 359.952 290.065C361.42 286.688 366.397 286.711 367.853 290.093C369.146 293.095 370.791 296.102 371.196 299.275C371.378 300.676 371.296 302.104 370.974 303.478C374.002 297.099 375.595 290.133 375.595 283.128C375.595 281.368 375.495 279.608 375.291 277.852C375.123 276.416 374.892 274.989 374.592 273.575C372.971 265.93 369.462 258.649 364.4 252.568C361.967 251.285 359.937 249.28 358.712 246.876C358.271 246.009 357.926 245.077 357.763 244.127C358.04 244.162 358.807 240.094 358.598 239.845C358.984 239.28 359.675 238.999 360.096 238.448C362.192 235.707 365.081 236.186 366.588 239.911C369.809 241.478 369.84 244.078 367.864 246.579C366.607 248.169 366.434 250.322 365.331 252.025C365.444 252.165 365.562 252.301 365.676 252.441C367.757 255.016 369.557 257.783 371.075 260.69C370.646 257.459 371.279 253.567 372.358 251.058C373.587 248.199 375.89 245.791 377.919 243.32C380.355 240.351 385.351 241.647 385.78 245.41C385.784 245.446 385.788 245.483 385.792 245.519C385.491 245.683 385.196 245.857 384.907 246.041C383.263 247.09 383.831 249.548 385.78 249.838L385.824 249.845C385.715 250.891 385.529 251.929 385.256 252.949C387.858 262.653 382.241 266.188 374.22 266.346C374.043 266.434 373.87 266.522 373.693 266.605C374.506 268.811 375.155 271.075 375.636 273.369C376.068 275.396 376.367 277.445 376.535 279.503C376.744 282.099 376.726 284.709 376.499 287.301L376.512 287.209C377.089 284.354 378.696 281.688 381.03 279.84C384.506 277.086 389.417 276.072 393.167 273.859C394.973 272.793 397.286 274.17 396.971 276.188L396.956 276.285C396.397 276.504 395.852 276.758 395.326 277.042C395.024 277.206 394.729 277.381 394.441 277.564C392.797 278.613 393.365 281.072 395.313 281.362L395.357 281.368C395.389 281.373 395.417 281.377 395.448 281.381C394.49 283.575 393.156 285.611 391.485 287.366C389.858 295.838 382.87 296.642 375.396 294.175H375.391C374.574 297.607 373.38 300.961 371.845 304.157H359.179C359.134 304.021 359.093 303.881 359.052 303.745C360.223 303.816 361.404 303.75 362.557 303.544C361.617 302.432 360.677 301.311 359.738 300.199C359.715 300.177 359.697 300.155 359.679 300.133C359.202 299.564 358.721 298.999 358.244 298.43L358.244 298.43C358.214 296.682 358.431 294.941 358.861 293.251L358.862 293.251L358.862 293.251H358.862Z" fill="#F2F2F2"/>
<path d="M0 304.193C0 304.641 0.372553 305 0.836482 305H396.065C396.529 305 396.901 304.641 396.901 304.193C396.901 303.746 396.529 303.387 396.065 303.387H0.836482C0.372553 303.387 0 303.746 0 304.193Z" fill="#CCCCCC"/>
<path d="M100.075 182.237H51.4199V180.882H100.075C104.301 180.882 107.74 177.565 107.74 173.489V141.763H109.146V173.489C109.146 178.312 105.076 182.237 100.075 182.237H100.075Z" fill="#00B0FF"/>
<path d="M192.912 251.01H82.252V252.366H192.912V251.01Z" fill="#00B0FF"/>
<path d="M263.123 173.172H204.015C200.825 173.172 198.23 170.669 198.23 167.593V111.285C198.23 108.209 200.825 105.707 204.015 105.707H263.123C266.312 105.707 268.907 108.209 268.907 111.285V167.593C268.907 170.669 266.312 173.172 263.123 173.172Z" fill="#E6E6E6"/>
<path d="M215.023 107.369C206.701 107.369 199.954 113.875 199.954 121.901V166.399C199.954 169.221 202.327 171.51 205.254 171.51H241.397C255.638 171.51 267.184 160.375 267.184 146.641V112.48C267.184 109.657 264.811 107.369 261.884 107.369H215.023V107.369Z" fill="white"/>
<path d="M249.4 123.732H217.614C217.008 123.732 216.515 123.256 216.515 122.672C216.515 122.087 217.008 121.611 217.614 121.611H249.4C250.006 121.611 250.499 122.087 250.499 122.672C250.499 123.256 250.006 123.732 249.4 123.732Z" fill="#E6E6E6"/>
<path d="M249.4 146.348H217.614C217.008 146.348 216.515 145.872 216.515 145.288C216.515 144.703 217.008 144.227 217.614 144.227H249.4C250.006 144.227 250.499 144.703 250.499 145.288C250.499 145.872 250.006 146.348 249.4 146.348Z" fill="#E6E6E6"/>
<path d="M262.307 135.048H204.707C204.101 135.048 203.607 134.572 203.607 133.987C203.607 133.402 204.101 132.927 204.707 132.927H262.307C262.913 132.927 263.407 133.402 263.407 133.987C263.407 134.572 262.913 135.048 262.307 135.048Z" fill="#E6E6E6"/>
<path d="M262.895 155.544H242.087C241.481 155.544 240.987 155.068 240.987 154.483C240.987 153.898 241.481 153.423 242.087 153.423H262.895C263.502 153.423 263.995 153.898 263.995 154.483C263.995 155.068 263.502 155.544 262.895 155.544Z" fill="#E6E6E6"/>
<path d="M138.969 285.362H92.0339C89.501 285.362 87.4404 283.375 87.4404 280.932V236.22C87.4404 233.777 89.501 231.79 92.0339 231.79H138.969C141.502 231.79 143.563 233.777 143.563 236.22V280.932C143.563 283.375 141.502 285.362 138.969 285.362H138.969Z" fill="#E6E6E6"/>
<path d="M100.774 233.11C94.1658 233.11 88.8086 238.276 88.8086 244.649V279.983C88.8086 282.225 90.6928 284.042 93.0171 284.042H121.717C133.026 284.042 142.194 275.201 142.194 264.294V237.168C142.194 234.927 140.309 233.11 137.985 233.11H100.774L100.774 233.11H100.774Z" fill="white"/>
<path d="M128.072 246.103H102.832C102.351 246.103 101.959 245.725 101.959 245.261C101.959 244.797 102.351 244.419 102.832 244.419H128.072C128.553 244.419 128.945 244.797 128.945 245.261C128.945 245.725 128.553 246.103 128.072 246.103Z" fill="#E6E6E6"/>
<path d="M128.072 264.062H102.832C102.351 264.062 101.959 263.684 101.959 263.22C101.959 262.755 102.351 262.378 102.832 262.378H128.072C128.553 262.378 128.945 262.755 128.945 263.22C128.945 263.684 128.553 264.062 128.072 264.062Z" fill="#E6E6E6"/>
<path d="M138.321 255.088H92.5833C92.1018 255.088 91.71 254.711 91.71 254.246C91.71 253.782 92.1018 253.404 92.5833 253.404H138.321C138.803 253.404 139.195 253.782 139.195 254.246C139.195 254.711 138.803 255.088 138.321 255.088Z" fill="#E6E6E6"/>
<path d="M138.788 271.364H122.265C121.783 271.364 121.392 270.986 121.392 270.522C121.392 270.057 121.783 269.68 122.265 269.68H138.788C139.269 269.68 139.661 270.057 139.661 270.522C139.661 270.986 139.269 271.364 138.788 271.364Z" fill="#E6E6E6"/>
<path d="M106.164 141.42H71.4537C69.5805 141.42 68.0566 139.951 68.0566 138.144V105.078C68.0566 103.271 69.5805 101.802 71.4537 101.802H106.164C108.038 101.802 109.561 103.271 109.561 105.078V138.144C109.561 139.951 108.038 141.42 106.164 141.42Z" fill="#E6E6E6"/>
<path d="M77.9175 102.778C73.0303 102.778 69.0684 106.599 69.0684 111.312V137.443C69.0684 139.1 70.4618 140.444 72.1807 140.444H93.4054C101.769 140.444 108.549 133.906 108.549 125.84V105.779C108.549 104.122 107.155 102.778 105.436 102.778H77.9175V102.778L77.9175 102.778Z" fill="white"/>
<path d="M98.1056 112.387H79.4398C79.0837 112.387 78.7939 112.108 78.7939 111.764C78.7939 111.421 79.0837 111.141 79.4398 111.141H98.1056C98.4617 111.141 98.7513 111.421 98.7513 111.764C98.7513 112.108 98.4617 112.387 98.1056 112.387Z" fill="#E6E6E6"/>
<path d="M98.1056 125.668H79.4398C79.0837 125.668 78.7939 125.389 78.7939 125.045C78.7939 124.702 79.0837 124.423 79.4398 124.423H98.1056C98.4617 124.423 98.7513 124.702 98.7513 125.045C98.7513 125.389 98.4617 125.668 98.1056 125.668Z" fill="#E6E6E6"/>
<path d="M105.685 119.032H71.8597C71.5036 119.032 71.2139 118.753 71.2139 118.409C71.2139 118.066 71.5036 117.786 71.8597 117.786H105.685C106.041 117.786 106.331 118.066 106.331 118.409C106.331 118.753 106.041 119.032 105.685 119.032Z" fill="#E6E6E6"/>
<path d="M106.03 131.068H93.8109C93.4548 131.068 93.165 130.789 93.165 130.445C93.165 130.102 93.4548 129.823 93.8109 129.823H106.03C106.387 129.823 106.676 130.102 106.676 130.445C106.676 130.789 106.387 131.068 106.03 131.068Z" fill="#E6E6E6"/>
<path d="M207.462 183.113C211.343 183.113 214.49 180.078 214.49 176.334C214.49 172.59 211.343 169.555 207.462 169.555C203.58 169.555 200.433 172.59 200.433 176.334C200.433 180.078 203.58 183.113 207.462 183.113Z" fill="#00B0FF"/>
<path d="M108.354 148.541C112.236 148.541 115.383 145.506 115.383 141.763C115.383 138.019 112.236 134.984 108.354 134.984C104.472 134.984 101.325 138.019 101.325 141.763C101.325 145.506 104.472 148.541 108.354 148.541Z" fill="#00B0FF"/>
<path d="M142.093 241.409C145.975 241.409 149.122 238.374 149.122 234.63C149.122 230.887 145.975 227.852 142.093 227.852C138.211 227.852 135.064 230.887 135.064 234.63C135.064 238.374 138.211 241.409 142.093 241.409Z" fill="#00B0FF"/>
<path d="M157.276 53.4517C162.114 53.4517 166.036 49.7489 166.036 45.1812C166.036 40.6136 162.114 36.9108 157.276 36.9108C152.438 36.9108 148.516 40.6136 148.516 45.1812C148.516 49.7489 152.438 53.4517 157.276 53.4517Z" fill="#F2F2F2"/>
<path d="M227.504 42.3518H180.351C178.733 42.3518 177.417 41.0825 177.417 39.5225C177.417 37.9624 178.733 36.6931 180.351 36.6931H227.504C229.122 36.6931 230.438 37.9624 230.438 39.5225C230.438 41.0825 229.122 42.3518 227.504 42.3518Z" fill="#F2F2F2"/>
<path d="M264.303 51.9281H180.351C178.733 51.9281 177.417 50.6588 177.417 49.0988C177.417 47.5387 178.733 46.2694 180.351 46.2694H264.303C265.921 46.2694 267.237 47.5387 267.237 49.0988C267.237 50.6588 265.921 51.9281 264.303 51.9281Z" fill="#F2F2F2"/>
<path d="M30.4772 88.2111C33.6084 88.2111 36.1467 85.8147 36.1467 82.8586C36.1467 79.9025 33.6084 77.5061 30.4772 77.5061C27.346 77.5061 24.8076 79.9025 24.8076 82.8586C24.8076 85.8147 27.346 88.2111 30.4772 88.2111Z" fill="#F2F2F2"/>
<path d="M75.9274 81.0275H45.4104C44.3635 81.0275 43.5117 80.206 43.5117 79.1964C43.5117 78.1867 44.3635 77.3652 45.4104 77.3652H75.9274C76.9743 77.3652 77.8261 78.1867 77.8261 79.1964C77.8261 80.206 76.9743 81.0275 75.9274 81.0275H75.9274Z" fill="#F2F2F2"/>
<path d="M99.743 87.2251H45.4104C44.3635 87.2251 43.5117 86.4036 43.5117 85.394C43.5117 84.3843 44.3635 83.5629 45.4104 83.5629H99.743C100.79 83.5629 101.642 84.3843 101.642 85.394C101.642 86.4036 100.79 87.2251 99.743 87.2251Z" fill="#F2F2F2"/>
<path d="M200.577 278.692C203.708 278.692 206.246 276.295 206.246 273.339C206.246 270.383 203.708 267.987 200.577 267.987C197.446 267.987 194.907 270.383 194.907 273.339C194.907 276.295 197.446 278.692 200.577 278.692Z" fill="#F2F2F2"/>
<path d="M246.027 271.508H215.51C214.463 271.508 213.611 270.687 213.611 269.677C213.611 268.667 214.463 267.846 215.51 267.846H246.027C247.074 267.846 247.926 268.667 247.926 269.677C247.926 270.687 247.074 271.508 246.027 271.508Z" fill="#F2F2F2"/>
<path d="M269.843 277.706H215.51C214.463 277.706 213.611 276.884 213.611 275.875C213.611 274.865 214.463 274.043 215.51 274.043H269.843C270.89 274.043 271.741 274.865 271.741 275.875C271.741 276.884 270.89 277.706 269.843 277.706Z" fill="#F2F2F2"/>
<path d="M132.428 105.727H131.022V170.125H132.428V105.727Z" fill="#E6E6E6"/>
<path d="M131.725 174.192C134.054 174.192 135.943 172.371 135.943 170.125C135.943 167.878 134.054 166.057 131.725 166.057C129.396 166.057 127.508 167.878 127.508 170.125C127.508 172.371 129.396 174.192 131.725 174.192Z" fill="#E6E6E6"/>
<path d="M195.688 220.965C198.017 220.965 199.905 219.144 199.905 216.897C199.905 214.651 198.017 212.83 195.688 212.83C193.359 212.83 191.471 214.651 191.471 216.897C191.471 219.144 193.359 220.965 195.688 220.965Z" fill="#E6E6E6"/>
<path d="M81.8199 165.38C84.1491 165.38 86.0372 163.559 86.0372 161.312C86.0372 159.066 84.1491 157.245 81.8199 157.245C79.4907 157.245 77.6025 159.066 77.6025 161.312C77.6025 163.559 79.4907 165.38 81.8199 165.38Z" fill="#E6E6E6"/>
<path d="M80.2611 161.318L57.1973 161.992L57.2398 163.348L80.3037 162.674L80.2611 161.318Z" fill="#E6E6E6"/>
<path d="M229.997 232.468H195.024V216.897H196.43V231.112H229.997V232.468Z" fill="#E6E6E6"/>
<path d="M80.0894 209.79C82.4186 209.79 84.3068 207.969 84.3068 205.723C84.3068 203.477 82.4186 201.656 80.0894 201.656C77.7602 201.656 75.8721 203.477 75.8721 205.723C75.8721 207.969 77.7602 209.79 80.0894 209.79Z" fill="#E6E6E6"/>
<path d="M113.982 221.293H79.0088V205.723H80.4146V219.937H113.982V221.293Z" fill="#E6E6E6"/>
<path d="M220.992 190.247H53.0137V191.602H220.992V190.247Z" fill="#E6E6E6"/>
</svg>
