<svg width="497" height="354" viewBox="0 0 497 354" fill="none" xmlns="http://www.w3.org/2000/svg">
<g clip-path="url(#clip0_66_327)">
<path d="M29.2855 271.574C14.657 265.219 1.95855 250.016 0.347656 231.526C14.5488 242.529 31.551 247.178 48.3461 244.652C54.8203 243.649 61.9338 241.729 67.474 245.853C70.9213 248.419 73.0615 252.976 74.0433 257.683C75.025 262.391 74.9808 267.305 74.9306 272.156L75.3861 273.238C60.1051 276.78 43.914 277.929 29.2855 271.574Z" fill="#F0F0F0"/>
<path d="M0.664256 231.434C8.11893 243.984 18.6953 253.41 30.8912 258.373C33.5008 259.497 36.2425 260.123 39.0153 260.228C41.7191 260.225 44.373 259.358 46.7014 257.716C48.898 256.238 51.0016 254.422 53.461 253.607C54.7251 253.212 56.0448 253.14 57.3336 253.397C58.6224 253.654 59.8511 254.233 60.9393 255.097C63.6975 257.165 65.669 260.294 67.508 263.433C69.5498 266.919 71.6243 270.578 74.8116 272.694C75.1978 272.95 74.8421 273.651 74.4565 273.395C68.9111 269.713 66.8579 261.904 62.1378 257.157C59.9353 254.942 57.1605 253.506 54.2498 254.221C51.7045 254.847 49.5339 256.718 47.3205 258.238C45.0689 259.879 42.5149 260.837 39.8818 261.028C37.1135 261.092 34.3562 260.594 31.728 259.553C25.7798 257.324 20.1621 253.991 15.0806 249.678C9.25838 244.793 4.1787 238.755 0.0613486 231.825C-0.193339 231.396 0.411232 231.008 0.664256 231.434V231.434Z" fill="white"/>
<path d="M26.8854 257.051C25.9104 259.382 24.2734 261.223 22.2668 262.245C20.2602 263.267 18.0146 263.404 15.9312 262.632C15.51 262.474 15.6959 261.685 16.1176 261.843C18.0566 262.567 20.1483 262.439 22.0152 261.482C23.8821 260.526 25.4013 258.804 26.2984 256.627C26.4938 256.154 27.0797 256.581 26.8854 257.051V257.051Z" fill="white"/>
<path d="M45.6705 258.641C44.2969 253.575 41.3746 249.312 37.4864 246.704C37.1009 246.446 37.4565 245.745 37.8415 246.003C41.8835 248.726 44.917 253.169 46.3367 258.446C46.4717 258.949 45.8049 259.142 45.6705 258.641Z" fill="white"/>
<path d="M10.0333 244.226C10.5679 243.418 10.9261 242.464 11.0757 241.45C11.2254 240.436 11.1618 239.393 10.8907 238.416C10.7503 237.915 11.4175 237.723 11.5568 238.22C11.8522 239.302 11.9212 240.453 11.758 241.574C11.5947 242.695 11.2041 243.751 10.6203 244.65C10.5712 244.74 10.4952 244.805 10.4077 244.83C10.3202 244.856 10.2277 244.841 10.1492 244.788C10.0717 244.732 10.0161 244.641 9.99437 244.536C9.97266 244.43 9.98664 244.319 10.0333 244.226V244.226Z" fill="white"/>
<path d="M37.2671 186.609C37.3622 186.918 37.4572 187.228 37.5578 187.54C38.8538 191.695 40.4303 195.719 42.2719 199.569C42.4103 199.87 42.5544 200.172 42.6997 200.467C47.2192 209.688 53.133 217.827 60.1403 224.469C62.9307 227.11 65.8852 229.493 68.9784 231.598C73.2503 234.504 78.0758 237.25 81.2021 241.546C81.5325 241.99 81.8395 242.457 82.1215 242.947L76.4552 272.49C76.4141 272.549 76.3786 272.611 76.3374 272.67L76.1563 273.862C75.9905 273.767 75.8201 273.664 75.6543 273.569C75.5578 273.514 75.4627 273.453 75.3663 273.398C75.3024 273.359 75.2386 273.32 75.1791 273.29C75.1578 273.277 75.1365 273.264 75.1208 273.253C75.0613 273.222 75.0088 273.186 74.955 273.158C74.0015 272.585 73.0499 272.003 72.0999 271.412C72.0942 271.41 72.0942 271.41 72.0898 271.402C64.8151 266.982 58.0051 261.548 51.8026 255.212C51.6196 255.02 51.431 254.826 51.2506 254.621C48.5223 251.726 45.9966 248.57 43.6987 245.184C42.4455 243.325 41.2719 241.392 40.1824 239.391C37.3756 234.216 35.2679 228.545 33.9367 222.587C31.2844 210.709 31.8424 197.951 36.8759 187.41C37.0048 187.14 37.1325 186.877 37.2671 186.609Z" fill="#F0F0F0"/>
<path d="M37.5682 186.761C37.1932 202.142 40.8858 217.273 48.1215 230.004C49.6384 232.778 51.512 235.249 53.6732 237.326C55.8333 239.268 58.3895 240.484 61.0761 240.848C63.5754 241.247 66.1707 241.309 68.5452 242.426C69.7536 243.02 70.8433 243.912 71.7428 245.044C72.6424 246.175 73.3314 247.522 73.7647 248.994C74.9244 252.628 74.9214 256.544 74.807 260.372C74.68 264.623 74.4917 269.037 75.9698 273.018C76.1489 273.5 75.5117 273.804 75.3328 273.322C72.7613 266.396 75.0587 258.684 73.6833 251.5C73.0415 248.148 71.5499 245.006 68.865 243.484C66.5172 242.154 63.8411 242.087 61.3075 241.709C58.6823 241.401 56.1602 240.329 53.9617 238.588C51.7189 236.649 49.7687 234.269 48.1947 231.548C44.5693 225.491 41.7639 218.791 39.8813 211.693C37.6951 203.607 36.6832 195.134 36.8895 186.64C36.9025 186.114 37.581 186.239 37.5682 186.761L37.5682 186.761Z" fill="white"/>
<path d="M45.5896 226.068C43.6362 227.228 41.4011 227.521 39.2836 226.895C37.166 226.268 35.3039 224.763 34.0298 222.648C33.7732 222.219 34.3193 221.723 34.5763 222.152C35.7597 224.124 37.4944 225.526 39.4672 226.105C41.44 226.683 43.5211 226.401 45.3348 225.308C45.7291 225.071 45.9818 225.833 45.5896 226.068Z" fill="white"/>
<path d="M59.7877 240.845C61.2454 235.811 61.0609 230.307 59.2712 225.429C59.0935 224.946 59.7307 224.642 59.9082 225.125C61.7627 230.205 61.9449 235.934 60.4184 241.167C60.2726 241.666 59.6427 241.341 59.7877 240.845Z" fill="white"/>
<path d="M38.5999 203.712C39.434 203.451 40.2009 202.947 40.8316 202.245C41.4624 201.543 41.9372 200.665 42.2135 199.689C42.3539 199.188 42.9836 199.514 42.8441 200.012C42.5346 201.088 42.0092 202.057 41.3138 202.834C40.6184 203.612 39.7741 204.174 38.8547 204.472C38.77 204.509 38.6768 204.506 38.594 204.463C38.5111 204.421 38.4449 204.343 38.4088 204.244C38.3755 204.143 38.3769 204.031 38.4126 203.931C38.4484 203.831 38.5157 203.752 38.5998 203.712H38.5999Z" fill="white"/>
<path d="M472.048 270.964C485.911 262.509 496.949 245.558 496.644 226.972C483.683 239.976 467.289 247.086 450.361 247.044C443.832 246.999 436.575 246.138 431.501 251.044C428.344 254.097 426.689 258.933 426.2 263.748C425.71 268.564 426.26 273.435 426.809 278.241L426.468 279.382C441.998 280.654 458.184 279.418 472.048 270.964Z" fill="#F0F0F0"/>
<path d="M496.321 226.927C490.214 240.476 480.688 251.383 469.096 258.099C466.622 259.598 463.965 260.621 461.224 261.132C458.541 261.526 455.818 261.055 453.338 259.768C451.006 258.623 448.731 257.129 446.207 256.682C444.911 256.475 443.594 256.598 442.342 257.042C441.089 257.486 439.929 258.242 438.938 259.259C436.414 261.716 434.779 265.11 433.278 268.496C431.61 272.254 429.928 276.19 426.982 278.758C426.626 279.069 427.051 279.713 427.407 279.402C432.531 274.934 433.765 266.883 437.961 261.479C439.919 258.957 442.525 257.125 445.487 257.408C448.078 257.655 450.424 259.193 452.777 260.377C455.181 261.675 457.814 262.25 460.447 262.053C463.201 261.711 465.886 260.811 468.387 259.393C474.06 256.307 479.293 252.175 483.892 247.149C489.167 241.447 493.587 234.709 496.959 227.227C497.168 226.763 496.528 226.467 496.321 226.927Z" fill="white"/>
<path d="M472.934 256.199C474.141 258.369 475.955 259.955 478.052 260.675C480.149 261.395 482.391 261.202 484.379 260.129C484.781 259.911 484.515 259.155 484.113 259.374C482.263 260.377 480.174 260.557 478.223 259.881C476.272 259.206 474.587 257.72 473.473 255.692C473.23 255.251 472.693 255.761 472.934 256.199Z" fill="white"/>
<path d="M454.456 260.534C455.297 255.304 457.759 250.645 461.349 247.486C461.705 247.174 461.28 246.53 460.925 246.843C457.194 250.138 454.64 254.993 453.774 260.438C453.692 260.957 454.374 261.051 454.456 260.534H454.456Z" fill="white"/>
<path d="M488.339 240.997C487.725 240.274 487.272 239.38 487.019 238.395C486.766 237.411 486.722 236.367 486.89 235.357C486.978 234.839 486.296 234.746 486.209 235.26C486.027 236.377 486.077 237.53 486.354 238.619C486.632 239.707 487.128 240.698 487.8 241.504C487.858 241.586 487.94 241.639 488.03 241.652C488.119 241.665 488.209 241.636 488.282 241.572C488.353 241.505 488.399 241.406 488.409 241.299C488.42 241.191 488.395 241.083 488.339 240.997H488.339Z" fill="white"/>
<path d="M455.382 187.815C455.319 188.136 455.257 188.457 455.189 188.781C454.331 193.096 453.18 197.32 451.749 201.412C451.642 201.73 451.53 202.051 451.417 202.365C447.88 212.18 442.849 221.125 436.579 228.746C434.081 231.776 431.394 234.574 428.541 237.117C424.601 240.629 420.095 244.062 417.434 248.785C417.152 249.274 416.895 249.783 416.666 250.31L425.33 278.797C425.377 278.85 425.419 278.906 425.466 278.959L425.768 280.115C425.923 279.996 426.081 279.869 426.236 279.75C426.326 279.682 426.414 279.607 426.504 279.538C426.564 279.491 426.623 279.443 426.679 279.404C426.699 279.388 426.718 279.372 426.733 279.358C426.789 279.319 426.837 279.276 426.888 279.24C427.775 278.531 428.659 277.814 429.541 277.088C429.547 277.086 429.547 277.086 429.55 277.077C436.315 271.623 442.514 265.229 448.017 258.031C448.179 257.814 448.346 257.594 448.504 257.364C450.914 254.091 453.096 250.588 455.028 246.89C456.08 244.861 457.046 242.77 457.921 240.625C460.174 235.076 461.682 229.139 462.39 223.031C463.799 210.854 461.933 198.275 455.852 188.552C455.697 188.303 455.543 188.061 455.382 187.815Z" fill="#F0F0F0"/>
<path d="M455.099 188.01C457.054 203.219 454.947 218.777 449.076 232.474C447.856 235.45 446.251 238.177 444.32 240.556C442.377 242.8 439.965 244.382 437.336 245.137C434.897 245.9 432.328 246.343 430.086 247.8C428.948 248.567 427.958 249.612 427.182 250.867C426.406 252.122 425.861 253.56 425.582 255.084C424.805 258.861 425.211 262.746 425.719 266.529C426.282 270.73 426.924 275.082 425.866 279.25C425.738 279.755 426.402 279.963 426.53 279.458C428.369 272.207 425.295 264.891 425.921 257.559C426.213 254.138 427.37 250.801 429.878 248.897C432.071 247.232 434.72 246.773 437.195 246.026C439.769 245.335 442.161 243.901 444.164 241.851C446.19 239.597 447.88 236.948 449.163 234.017C452.137 227.474 454.232 220.413 455.369 213.093C456.707 204.747 456.839 196.189 455.76 187.79C455.693 187.27 455.032 187.494 455.099 188.01Z" fill="white"/>
<path d="M451.182 228.197C453.24 229.061 455.488 229.023 457.525 228.091C459.562 227.158 461.256 225.391 462.302 223.105C462.513 222.642 461.92 222.23 461.709 222.694C460.738 224.824 459.16 226.47 457.262 227.334C455.364 228.198 453.269 228.223 451.357 227.404C450.941 227.227 450.769 228.021 451.182 228.197Z" fill="white"/>
<path d="M438.615 244.945C436.651 240.164 436.267 234.674 437.541 229.57C437.668 229.065 437.004 228.857 436.878 229.362C435.56 234.676 435.969 240.388 438.023 245.358C438.219 245.831 438.81 245.416 438.615 244.945Z" fill="white"/>
<path d="M455.817 204.983C454.963 204.847 454.15 204.46 453.452 203.855C452.753 203.251 452.192 202.449 451.817 201.522C451.626 201.046 451.035 201.462 451.225 201.935C451.642 202.957 452.264 203.842 453.034 204.511C453.804 205.181 454.7 205.615 455.643 205.776C455.731 205.8 455.823 205.783 455.901 205.729C455.978 205.675 456.036 205.587 456.062 205.484C456.084 205.379 456.072 205.267 456.026 205.174C455.98 205.08 455.905 205.012 455.817 204.983V204.983Z" fill="white"/>
<path d="M432.923 12.1682H335.25V19.672C335.249 20.0562 335.359 20.4291 335.563 20.7266C335.366 26.5918 335.25 34.0793 335.25 42.2158V242.83C335.25 261.634 335.882 276.934 336.656 276.934H431.517C432.292 276.934 432.923 261.634 432.923 242.83V42.2158C432.923 34.0793 432.808 26.5918 432.611 20.7266C432.814 20.4291 432.925 20.0562 432.923 19.672L432.923 12.1682Z" fill="white"/>
<path d="M431.517 277.745H336.656C335.917 277.745 335.428 277.745 334.984 266.974C334.717 260.51 334.57 251.935 334.57 242.83V42.216C334.57 34.3521 334.682 26.7089 334.884 20.6941C335.01 17.0828 335.155 14.1901 335.314 12.0951C335.626 7.99381 335.923 7.30103 336.656 7.30103H431.517C432.25 7.30103 432.547 7.99381 432.859 12.0951C433.018 14.198 433.163 17.0907 433.289 20.6925L433.289 20.6941C433.491 26.7026 433.602 34.3458 433.602 42.216V242.83C433.602 251.936 433.455 260.51 433.189 266.974C432.744 277.745 432.256 277.745 431.517 277.745ZM337.042 276.123H431.131C431.622 273.906 432.243 261.87 432.243 242.83V42.216C432.243 34.3672 432.133 26.7477 431.932 20.7606H431.931C431.806 17.1846 431.663 14.3184 431.506 12.2416C431.445 11.1261 431.318 10.0172 431.124 8.92346H337.048C336.855 10.0172 336.727 11.1261 336.667 12.2416C336.51 14.3105 336.367 17.1767 336.241 20.7606C336.04 26.7529 335.929 34.3731 335.929 42.216V242.83C335.929 261.869 336.55 273.906 337.042 276.123Z" fill="#E4E4E4"/>
<path d="M431.517 8.11206H336.656C336.284 8.11292 335.926 8.2901 335.663 8.60483C335.399 8.91955 335.251 9.34617 335.25 9.79129V19.6719C335.249 20.0562 335.359 20.429 335.563 20.7265C335.695 20.9211 335.861 21.078 336.051 21.1861C336.24 21.2941 336.447 21.3505 336.656 21.3512H431.517C431.727 21.3505 431.934 21.294 432.123 21.186C432.312 21.078 432.479 20.921 432.611 20.7265C432.814 20.429 432.925 20.0561 432.923 19.6719V9.79129C432.923 9.34621 432.774 8.91959 432.511 8.60486C432.247 8.29013 431.89 8.11293 431.517 8.11206Z" fill="#CACACA"/>
<path d="M343.415 16.634C344.518 16.634 345.412 15.5663 345.412 14.2493C345.412 12.9323 344.518 11.8646 343.415 11.8646C342.312 11.8646 341.418 12.9323 341.418 14.2493C341.418 15.5663 342.312 16.634 343.415 16.634Z" fill="white"/>
<path d="M350.993 16.634C352.096 16.634 352.99 15.5663 352.99 14.2493C352.99 12.9323 352.096 11.8646 350.993 11.8646C349.89 11.8646 348.996 12.9323 348.996 14.2493C348.996 15.5663 349.89 16.634 350.993 16.634Z" fill="white"/>
<path d="M358.573 16.634C359.676 16.634 360.57 15.5663 360.57 14.2493C360.57 12.9323 359.676 11.8646 358.573 11.8646C357.47 11.8646 356.576 12.9323 356.576 14.2493C356.576 15.5663 357.47 16.634 358.573 16.634Z" fill="white"/>
<path d="M424.091 11.0649H415.362C415.191 11.0663 415.028 11.1479 414.907 11.2922C414.786 11.4364 414.718 11.6316 414.717 11.8356C414.714 11.9517 414.738 12.0666 414.785 12.1682C414.837 12.2988 414.918 12.4093 415.021 12.4868C415.123 12.5644 415.241 12.6058 415.362 12.6063H424.091C424.213 12.607 424.333 12.5662 424.436 12.4886C424.54 12.411 424.623 12.2999 424.675 12.1682C424.717 12.0645 424.738 11.9506 424.736 11.8356C424.736 11.7344 424.72 11.6341 424.687 11.5406C424.655 11.4471 424.607 11.3621 424.547 11.2905C424.487 11.2189 424.416 11.1622 424.338 11.1235C424.26 11.0848 424.176 11.0649 424.091 11.0649Z" fill="white"/>
<path d="M424.091 13.9611H415.362C415.191 13.9611 415.027 14.0423 414.906 14.1868C414.785 14.3313 414.717 14.5273 414.717 14.7317C414.717 14.9361 414.785 15.1321 414.906 15.2767C415.027 15.4212 415.191 15.5024 415.362 15.5024H424.091C424.262 15.5024 424.426 15.4212 424.547 15.2767C424.668 15.1321 424.736 14.9361 424.736 14.7317C424.736 14.5273 424.668 14.3313 424.547 14.1868C424.426 14.0423 424.262 13.9611 424.091 13.9611Z" fill="white"/>
<path d="M424.091 16.8571H415.362C415.191 16.8571 415.027 16.9383 414.906 17.0828C414.785 17.2273 414.717 17.4233 414.717 17.6277C414.717 17.8321 414.785 18.0281 414.906 18.1727C415.027 18.3172 415.191 18.3984 415.362 18.3984H424.091C424.262 18.3984 424.426 18.3172 424.547 18.1727C424.668 18.0281 424.736 17.8321 424.736 17.6277C424.736 17.4233 424.668 17.2273 424.547 17.0828C424.426 16.9383 424.262 16.8571 424.091 16.8571Z" fill="white"/>
<path d="M393.524 43.0109H375.564C374.664 43.0113 373.8 43.4388 373.163 44.1993C372.526 44.9599 372.168 45.9914 372.168 47.067V65.6439C372.169 66.7191 372.528 67.7497 373.164 68.51C373.801 69.2703 374.664 69.6982 375.564 69.7H393.524C394.424 69.6969 395.287 69.2685 395.923 68.5085C396.559 67.7486 396.918 66.7187 396.921 65.6439V47.067C396.919 45.9918 396.561 44.9611 395.924 44.2008C395.288 43.4405 394.425 43.0126 393.524 43.0109Z" fill="#00B0FF"/>
<path d="M415.838 81.8357H353.243C352.834 81.8357 352.442 82.0297 352.153 82.375C351.864 82.7204 351.701 83.1888 351.701 83.6772C351.701 84.1655 351.864 84.6339 352.153 84.9793C352.442 85.3246 352.834 85.5186 353.243 85.5186H415.838C416.247 85.5186 416.639 85.3246 416.929 84.9793C417.218 84.6339 417.38 84.1655 417.38 83.6772C417.38 83.1888 417.218 82.7204 416.929 82.375C416.639 82.0297 416.247 81.8357 415.838 81.8357Z" fill="#E4E4E4"/>
<path d="M377.018 90.4672H353.243C352.834 90.4672 352.442 90.6612 352.153 91.0065C351.864 91.3519 351.701 91.8203 351.701 92.3086C351.701 92.797 351.864 93.2654 352.153 93.6108C352.442 93.9561 352.834 94.1501 353.243 94.1501H377.018C377.427 94.1501 377.819 93.9561 378.108 93.6108C378.397 93.2654 378.56 92.797 378.56 92.3086C378.56 91.8203 378.397 91.3519 378.108 91.0065C377.819 90.6612 377.427 90.4672 377.018 90.4672Z" fill="#E4E4E4"/>
<path d="M393.524 123.322H375.564C374.664 123.322 373.8 123.749 373.163 124.51C372.526 125.271 372.168 126.302 372.168 127.378V145.955C372.169 147.03 372.528 148.06 373.164 148.821C373.801 149.581 374.664 150.009 375.564 150.011H393.524C394.424 150.008 395.287 149.579 395.923 148.819C396.559 148.059 396.918 147.029 396.921 145.955V127.378C396.919 126.302 396.561 125.272 395.924 124.512C395.288 123.751 394.425 123.323 393.524 123.322Z" fill="#00B0FF"/>
<path d="M415.838 162.146H353.243C352.834 162.146 352.442 162.34 352.153 162.686C351.864 163.031 351.701 163.5 351.701 163.988C351.701 164.476 351.864 164.945 352.153 165.29C352.442 165.635 352.834 165.829 353.243 165.829H415.838C416.247 165.829 416.639 165.635 416.929 165.29C417.218 164.945 417.38 164.476 417.38 163.988C417.38 163.5 417.218 163.031 416.929 162.686C416.639 162.34 416.247 162.146 415.838 162.146Z" fill="#E4E4E4"/>
<path d="M377.018 170.778H353.243C352.834 170.778 352.442 170.972 352.153 171.317C351.864 171.663 351.701 172.131 351.701 172.619C351.701 173.108 351.864 173.576 352.153 173.922C352.442 174.267 352.834 174.461 353.243 174.461H377.018C377.427 174.461 377.819 174.267 378.108 173.922C378.397 173.576 378.56 173.108 378.56 172.619C378.56 172.131 378.397 171.663 378.108 171.317C377.819 170.972 377.427 170.778 377.018 170.778Z" fill="#E4E4E4"/>
<path d="M393.524 203.632H375.564C374.664 203.633 373.8 204.06 373.163 204.821C372.526 205.581 372.168 206.613 372.168 207.688V226.265C372.169 227.341 372.528 228.371 373.164 229.131C373.801 229.892 374.664 230.32 375.564 230.321H393.524C394.424 230.318 395.287 229.89 395.923 229.13C396.559 228.37 396.918 227.34 396.921 226.265V207.688C396.919 206.613 396.561 205.583 395.924 204.822C395.288 204.062 394.425 203.634 393.524 203.632Z" fill="#00B0FF"/>
<path d="M415.838 242.457H353.243C352.834 242.457 352.442 242.651 352.153 242.997C351.864 243.342 351.701 243.81 351.701 244.299C351.701 244.787 351.864 245.256 352.153 245.601C352.442 245.946 352.834 246.14 353.243 246.14H415.838C416.247 246.14 416.639 245.946 416.929 245.601C417.218 245.256 417.38 244.787 417.38 244.299C417.38 243.81 417.218 243.342 416.929 242.997C416.639 242.651 416.247 242.457 415.838 242.457Z" fill="#E4E4E4"/>
<path d="M377.018 251.089H353.243C352.834 251.089 352.442 251.283 352.153 251.628C351.864 251.973 351.701 252.442 351.701 252.93C351.701 253.419 351.864 253.887 352.153 254.232C352.442 254.578 352.834 254.772 353.243 254.772H377.018C377.427 254.772 377.819 254.578 378.108 254.232C378.397 253.887 378.56 253.419 378.56 252.93C378.56 252.442 378.397 251.973 378.108 251.628C377.819 251.283 377.427 251.089 377.018 251.089Z" fill="#E4E4E4"/>
<path d="M308.616 2.49039C308.615 2.04531 308.466 1.6187 308.203 1.30397C307.939 0.989241 307.582 0.812032 307.21 0.811157H56.1153C55.7426 0.812017 55.3853 0.9892 55.1218 1.30392C54.8582 1.61864 54.7098 2.04527 54.709 2.49039V12.371C54.7078 12.7824 54.8364 13.1792 55.0692 13.4824C54.845 20.1912 54.709 29.0335 54.709 38.7195V261.732C54.709 282.645 55.3408 299.648 56.1153 299.648H307.21C307.984 299.648 308.616 282.645 308.616 261.732V38.7195C308.616 29.0335 308.48 20.1912 308.256 13.4824C308.488 13.1792 308.617 12.7824 308.616 12.371V2.49039Z" fill="white"/>
<path d="M307.209 300.46H56.1149C55.3473 300.46 54.8839 300.46 54.4427 288.568C54.1761 281.385 54.0293 271.855 54.0293 261.732V38.7195C54.0293 29.3845 54.1574 20.4104 54.3901 13.4501C54.8366 1.0831e-05 55.3451 0 56.1149 0H307.209C307.979 0 308.487 0.00238745 308.934 13.4501C309.166 20.4041 309.294 29.3782 309.294 38.7195V261.732C309.294 271.855 309.148 281.386 308.881 288.568C308.44 300.46 307.977 300.46 307.209 300.46ZM56.5114 298.837H306.813C307.368 296.294 307.936 282.012 307.936 261.732V38.7195C307.936 29.3992 307.808 20.4476 307.576 13.515V13.5147C307.294 4.99408 306.963 2.40118 306.805 1.62244H56.5188C56.3608 2.40121 56.0305 4.99408 55.7475 13.5147C55.5155 20.4544 55.3878 29.4055 55.3878 38.7195V261.732C55.3878 282.012 55.9555 296.293 56.5114 298.837Z" fill="#E4E4E4"/>
<path d="M307.21 0.811157H56.1153C55.7426 0.812017 55.3853 0.9892 55.1218 1.30392C54.8582 1.61864 54.7098 2.04527 54.709 2.49039V12.371C54.7078 12.7824 54.8364 13.1792 55.0692 13.4824C55.1997 13.6605 55.3606 13.8032 55.5409 13.9011C55.7213 13.999 55.9171 14.0499 56.1153 14.0503H307.209C307.408 14.0499 307.603 13.999 307.784 13.9011C307.964 13.8032 308.125 13.6605 308.256 13.4824C308.488 13.1792 308.617 12.7824 308.615 12.371V2.49039C308.615 2.04532 308.466 1.61873 308.203 1.304C307.939 0.989268 307.582 0.812049 307.21 0.811157Z" fill="#CACACA"/>
<path d="M62.8738 9.33308C63.9766 9.33308 64.8706 8.26542 64.8706 6.9484C64.8706 5.63138 63.9766 4.56372 62.8738 4.56372C61.771 4.56372 60.877 5.63138 60.877 6.9484C60.877 8.26542 61.771 9.33308 62.8738 9.33308Z" fill="white"/>
<path d="M70.4519 9.33308C71.5547 9.33308 72.4487 8.26542 72.4487 6.9484C72.4487 5.63138 71.5547 4.56372 70.4519 4.56372C69.3491 4.56372 68.4551 5.63138 68.4551 6.9484C68.4551 8.26542 69.3491 9.33308 70.4519 9.33308Z" fill="white"/>
<path d="M78.032 9.33308C79.1348 9.33308 80.0288 8.26542 80.0288 6.9484C80.0288 5.63138 79.1348 4.56372 78.032 4.56372C76.9292 4.56372 76.0352 5.63138 76.0352 6.9484C76.0352 8.26542 76.9292 9.33308 78.032 9.33308Z" fill="white"/>
<path d="M299.784 3.76404H291.055C290.884 3.76404 290.72 3.84523 290.599 3.98976C290.478 4.13428 290.41 4.3303 290.41 4.53469C290.41 4.73909 290.478 4.93511 290.599 5.07963C290.72 5.22416 290.884 5.30536 291.055 5.30536H299.784C299.955 5.30536 300.12 5.22416 300.241 5.07963C300.362 4.93511 300.43 4.73909 300.43 4.53469C300.43 4.3303 300.362 4.13428 300.241 3.98976C300.12 3.84523 299.955 3.76404 299.784 3.76404Z" fill="white"/>
<path d="M299.784 6.66003H291.055C290.884 6.66003 290.72 6.74122 290.599 6.88575C290.478 7.03028 290.41 7.2263 290.41 7.43069C290.41 7.63508 290.478 7.8311 290.599 7.97563C290.72 8.12016 290.884 8.20135 291.055 8.20135H299.784C299.955 8.20135 300.12 8.12016 300.241 7.97563C300.362 7.8311 300.43 7.63508 300.43 7.43069C300.43 7.2263 300.362 7.03028 300.241 6.88575C300.12 6.74122 299.955 6.66003 299.784 6.66003Z" fill="white"/>
<path d="M299.784 9.55615H291.055C290.884 9.55615 290.72 9.63736 290.599 9.78188C290.478 9.92641 290.41 10.1224 290.41 10.3268C290.41 10.5312 290.478 10.7272 290.599 10.8717C290.72 11.0163 290.884 11.0975 291.055 11.0975H299.784C299.955 11.0975 300.12 11.0163 300.241 10.8717C300.362 10.7272 300.43 10.5312 300.43 10.3268C300.43 10.1224 300.362 9.92641 300.241 9.78188C300.12 9.63736 299.955 9.55615 299.784 9.55615Z" fill="white"/>
<path d="M137.274 50.3118H107.888C106.415 50.3139 105.003 51.0138 103.961 52.2577C102.92 53.5017 102.334 55.1883 102.332 56.9476V87.344C102.334 89.1032 102.92 90.7898 103.961 92.0338C105.003 93.2777 106.415 93.9776 107.888 93.9797H137.274C138.747 93.9776 140.159 93.2777 141.201 92.0338C142.243 90.7898 142.828 89.1032 142.83 87.344V56.9476C142.828 55.1883 142.243 53.5017 141.201 52.2577C140.159 51.0138 138.747 50.3139 137.274 50.3118Z" fill="#00B0FF"/>
<path d="M258.478 62.0664H156.057C155.387 62.0664 154.746 62.3839 154.272 62.9491C153.799 63.5143 153.533 64.2808 153.533 65.0801C153.533 65.8794 153.799 66.6459 154.272 67.2111C154.746 67.7763 155.387 68.0938 156.057 68.0938H258.478C259.147 68.0938 259.789 67.7763 260.262 67.2111C260.735 66.6459 261.001 65.8794 261.001 65.0801C261.001 64.2808 260.735 63.5143 260.262 62.9491C259.789 62.3839 259.147 62.0664 258.478 62.0664Z" fill="#E4E4E4"/>
<path d="M194.959 76.1897H156.057C155.387 76.1897 154.746 76.5072 154.272 77.0724C153.799 77.6376 153.533 78.4041 153.533 79.2034C153.533 80.0027 153.799 80.7692 154.272 81.3344C154.746 81.8995 155.387 82.2171 156.057 82.2171H194.959C195.628 82.2171 196.27 81.8995 196.743 81.3344C197.216 80.7692 197.482 80.0027 197.482 79.2034C197.482 78.4041 197.216 77.6376 196.743 77.0724C196.27 76.5072 195.628 76.1897 194.959 76.1897Z" fill="#E4E4E4"/>
<path d="M137.274 131.434H107.888C106.415 131.436 105.003 132.136 103.961 133.38C102.92 134.624 102.334 136.31 102.332 138.07V168.466C102.334 170.225 102.92 171.912 103.961 173.156C105.003 174.4 106.415 175.1 107.888 175.102H137.274C138.747 175.1 140.159 174.4 141.201 173.156C142.243 171.912 142.828 170.225 142.83 168.466V138.07C142.828 136.31 142.243 134.624 141.201 133.38C140.159 132.136 138.747 131.436 137.274 131.434Z" fill="#00B0FF"/>
<path d="M258.478 143.188H156.057C155.387 143.188 154.746 143.506 154.272 144.071C153.799 144.636 153.533 145.403 153.533 146.202C153.533 147.001 153.799 147.768 154.272 148.333C154.746 148.898 155.387 149.216 156.057 149.216H258.478C259.147 149.216 259.789 148.898 260.262 148.333C260.735 147.768 261.001 147.001 261.001 146.202C261.001 145.403 260.735 144.636 260.262 144.071C259.789 143.506 259.147 143.188 258.478 143.188Z" fill="#E4E4E4"/>
<path d="M194.959 157.312H156.057C155.387 157.312 154.746 157.629 154.272 158.194C153.799 158.76 153.533 159.526 153.533 160.325C153.533 161.125 153.799 161.891 154.272 162.456C154.746 163.022 155.387 163.339 156.057 163.339H194.959C195.628 163.339 196.27 163.022 196.743 162.456C197.216 161.891 197.482 161.125 197.482 160.325C197.482 159.526 197.216 158.76 196.743 158.194C196.27 157.629 195.628 157.312 194.959 157.312Z" fill="#E4E4E4"/>
<path d="M137.274 212.556H107.888C106.415 212.558 105.003 213.258 103.961 214.502C102.92 215.746 102.334 217.432 102.332 219.192V249.588C102.334 251.347 102.92 253.034 103.961 254.278C105.003 255.522 106.415 256.222 107.888 256.224H137.274C138.747 256.222 140.159 255.522 141.201 254.278C142.243 253.034 142.828 251.347 142.83 249.588V219.192C142.828 217.432 142.243 215.746 141.201 214.502C140.159 213.258 138.747 212.558 137.274 212.556Z" fill="#00B0FF"/>
<path d="M258.478 224.31H156.057C155.387 224.31 154.746 224.628 154.272 225.193C153.799 225.758 153.533 226.525 153.533 227.324C153.533 228.123 153.799 228.89 154.272 229.455C154.746 230.02 155.387 230.338 156.057 230.338H258.478C259.147 230.338 259.789 230.02 260.262 229.455C260.735 228.89 261.001 228.123 261.001 227.324C261.001 226.525 260.735 225.758 260.262 225.193C259.789 224.628 259.147 224.31 258.478 224.31Z" fill="#E4E4E4"/>
<path d="M194.959 238.434H156.057C155.387 238.434 154.746 238.751 154.272 239.316C153.799 239.881 153.533 240.648 153.533 241.447C153.533 242.247 153.799 243.013 154.272 243.578C154.746 244.143 155.387 244.461 156.057 244.461H194.959C195.628 244.461 196.27 244.143 196.743 243.578C197.216 243.013 197.482 242.247 197.482 241.447C197.482 240.648 197.216 239.881 196.743 239.316C196.27 238.751 195.628 238.434 194.959 238.434Z" fill="#E4E4E4"/>
<path d="M352.042 353.189H183.821C183.045 353.189 182.414 338.952 182.414 321.451V134.762C182.414 117.261 183.045 103.024 183.821 103.024H352.042C352.818 103.024 353.449 117.261 353.449 134.762V321.451C353.449 338.952 352.818 353.189 352.042 353.189Z" fill="white"/>
<path d="M352.044 354H183.822C183.11 354 182.596 354 182.15 343.926C181.883 337.911 181.736 329.929 181.736 321.451V134.762C181.736 126.284 181.883 118.302 182.15 112.287C182.596 102.213 183.11 102.213 183.822 102.213H352.044C352.756 102.213 353.27 102.213 353.716 112.287C353.983 118.302 354.13 126.284 354.13 134.762V321.451C354.13 329.929 353.983 337.911 353.716 343.926C353.27 354 352.756 354 352.044 354ZM184.198 352.378H351.668C352.156 350.276 352.771 339.078 352.771 321.451V134.762C352.771 117.134 352.156 105.937 351.668 103.835H184.198C183.71 105.937 183.095 117.134 183.095 134.762V321.451C183.095 339.078 183.71 350.276 184.198 352.378Z" fill="#E4E4E4"/>
<path d="M352.042 116.264H183.821C183.448 116.263 183.09 116.086 182.826 115.771C182.563 115.456 182.414 115.029 182.414 114.584V104.704C182.414 104.259 182.563 103.832 182.826 103.517C183.09 103.202 183.448 103.025 183.821 103.024H352.042C352.415 103.025 352.773 103.202 353.036 103.517C353.3 103.832 353.448 104.259 353.449 104.704V114.584C353.448 115.029 353.3 115.456 353.036 115.771C352.773 116.086 352.415 116.263 352.042 116.264Z" fill="#CACACA"/>
<path d="M190.577 111.547C191.68 111.547 192.574 110.479 192.574 109.162C192.574 107.845 191.68 106.777 190.577 106.777C189.474 106.777 188.58 107.845 188.58 109.162C188.58 110.479 189.474 111.547 190.577 111.547Z" fill="white"/>
<path d="M198.157 111.547C199.26 111.547 200.154 110.479 200.154 109.162C200.154 107.845 199.26 106.777 198.157 106.777C197.054 106.777 196.16 107.845 196.16 109.162C196.16 110.479 197.054 111.547 198.157 111.547Z" fill="white"/>
<path d="M205.735 111.547C206.838 111.547 207.732 110.479 207.732 109.162C207.732 107.845 206.838 106.777 205.735 106.777C204.632 106.777 203.738 107.845 203.738 109.162C203.738 110.479 204.632 111.547 205.735 111.547Z" fill="white"/>
<path d="M344.616 107.521H335.889C335.717 107.521 335.553 107.439 335.432 107.295C335.31 107.15 335.242 106.953 335.242 106.749C335.242 106.544 335.31 106.347 335.432 106.203C335.553 106.058 335.717 105.977 335.889 105.977H344.616C344.788 105.977 344.951 106.059 345.072 106.204C345.193 106.348 345.261 106.544 345.261 106.749C345.261 106.953 345.193 107.149 345.072 107.294C344.951 107.438 344.788 107.52 344.616 107.521Z" fill="white"/>
<path d="M344.616 110.416H335.889C335.717 110.416 335.553 110.335 335.432 110.19C335.31 110.045 335.242 109.849 335.242 109.644C335.242 109.439 335.31 109.243 335.432 109.098C335.553 108.953 335.717 108.872 335.889 108.872H344.616C344.788 108.872 344.952 108.953 345.074 109.098C345.195 109.243 345.263 109.439 345.263 109.644C345.263 109.849 345.195 110.045 345.074 110.19C344.952 110.335 344.788 110.416 344.616 110.416Z" fill="white"/>
<path d="M344.616 113.311H335.889C335.717 113.311 335.553 113.23 335.432 113.085C335.31 112.94 335.242 112.744 335.242 112.539C335.242 112.335 335.31 112.138 335.432 111.993C335.553 111.849 335.717 111.767 335.889 111.767H344.616C344.788 111.768 344.951 111.85 345.072 111.994C345.193 112.139 345.261 112.335 345.261 112.539C345.261 112.744 345.193 112.94 345.072 113.084C344.951 113.229 344.788 113.311 344.616 113.311Z" fill="white"/>
<path d="M235.513 177.589H214.053C212.977 177.588 211.945 177.077 211.184 176.168C210.423 175.26 209.995 174.028 209.994 172.743V150.545C209.995 149.26 210.423 148.028 211.184 147.12C211.945 146.211 212.977 145.7 214.053 145.698H235.513C236.589 145.7 237.621 146.211 238.381 147.12C239.142 148.028 239.57 149.26 239.571 150.545V172.743C239.57 174.028 239.142 175.26 238.381 176.168C237.621 177.077 236.589 177.588 235.513 177.589Z" fill="#00B0FF"/>
<path d="M324.027 158.687H249.231C248.743 158.687 248.274 158.456 247.928 158.043C247.583 157.63 247.389 157.071 247.389 156.487C247.389 155.903 247.583 155.344 247.928 154.931C248.274 154.518 248.743 154.287 249.231 154.287H324.027C324.515 154.287 324.984 154.518 325.329 154.931C325.675 155.344 325.869 155.903 325.869 156.487C325.869 157.071 325.675 157.63 325.329 158.043C324.984 158.456 324.515 158.687 324.027 158.687Z" fill="#E4E4E4"/>
<path d="M277.64 169.001H249.231C248.743 169.001 248.274 168.769 247.928 168.357C247.583 167.944 247.389 167.384 247.389 166.801C247.389 166.217 247.583 165.658 247.928 165.245C248.274 164.832 248.743 164.6 249.231 164.6H277.64C277.882 164.6 278.122 164.656 278.346 164.767C278.57 164.877 278.773 165.039 278.945 165.243C279.116 165.448 279.252 165.691 279.345 165.958C279.438 166.225 279.486 166.512 279.486 166.801C279.486 167.09 279.438 167.377 279.345 167.644C279.252 167.911 279.116 168.154 278.945 168.358C278.773 168.563 278.57 168.725 278.346 168.835C278.122 168.945 277.882 169.002 277.64 169.001Z" fill="#E4E4E4"/>
<path d="M235.513 243.298H214.053C212.977 243.297 211.945 242.786 211.184 241.877C210.423 240.968 209.995 239.736 209.994 238.451V216.254C209.995 214.969 210.423 213.737 211.184 212.828C211.945 211.92 212.977 211.409 214.053 211.407H235.513C236.589 211.409 237.621 211.92 238.381 212.828C239.142 213.737 239.57 214.969 239.571 216.254V238.451C239.57 239.736 239.142 240.968 238.381 241.877C237.621 242.786 236.589 243.297 235.513 243.298Z" fill="#00B0FF"/>
<path d="M324.027 224.396H249.231C248.743 224.396 248.274 224.164 247.928 223.752C247.583 223.339 247.389 222.779 247.389 222.196C247.389 221.612 247.583 221.053 247.928 220.64C248.274 220.227 248.743 219.995 249.231 219.995H324.027C324.515 219.995 324.984 220.227 325.329 220.64C325.675 221.053 325.869 221.612 325.869 222.196C325.869 222.779 325.675 223.339 325.329 223.752C324.984 224.164 324.515 224.396 324.027 224.396Z" fill="#E4E4E4"/>
<path d="M277.64 234.71H249.231C248.743 234.71 248.274 234.478 247.928 234.066C247.583 233.653 247.389 233.093 247.389 232.51C247.389 231.926 247.583 231.366 247.928 230.954C248.274 230.541 248.743 230.309 249.231 230.309H277.64C277.882 230.309 278.122 230.365 278.346 230.476C278.57 230.586 278.773 230.748 278.945 230.952C279.116 231.157 279.252 231.399 279.345 231.667C279.438 231.934 279.486 232.22 279.486 232.51C279.486 232.799 279.438 233.085 279.345 233.353C279.252 233.62 279.116 233.863 278.945 234.067C278.773 234.271 278.57 234.433 278.346 234.544C278.122 234.654 277.882 234.711 277.64 234.71Z" fill="#E4E4E4"/>
<path d="M235.513 309.007H214.053C212.977 309.006 211.945 308.494 211.184 307.586C210.423 306.677 209.995 305.445 209.994 304.16V281.963C209.995 280.678 210.423 279.446 211.184 278.537C211.945 277.629 212.977 277.118 214.053 277.116H235.513C236.589 277.118 237.621 277.629 238.381 278.537C239.142 279.446 239.57 280.678 239.571 281.963V304.16C239.57 305.445 239.142 306.677 238.381 307.586C237.621 308.494 236.589 309.006 235.513 309.007Z" fill="#00B0FF"/>
<path d="M324.027 290.105H249.231C248.743 290.105 248.274 289.873 247.928 289.461C247.583 289.048 247.389 288.488 247.389 287.905C247.389 287.321 247.583 286.761 247.928 286.349C248.274 285.936 248.743 285.704 249.231 285.704H324.027C324.515 285.704 324.984 285.936 325.329 286.349C325.675 286.761 325.869 287.321 325.869 287.905C325.869 288.488 325.675 289.048 325.329 289.461C324.984 289.873 324.515 290.105 324.027 290.105Z" fill="#E4E4E4"/>
<path d="M277.64 300.419H249.231C248.743 300.419 248.274 300.187 247.928 299.774C247.583 299.362 247.389 298.802 247.389 298.218C247.389 297.635 247.583 297.075 247.928 296.663C248.274 296.25 248.743 296.018 249.231 296.018H277.64C277.882 296.018 278.122 296.074 278.346 296.184C278.57 296.295 278.773 296.457 278.945 296.661C279.116 296.865 279.252 297.108 279.345 297.375C279.438 297.643 279.486 297.929 279.486 298.218C279.486 298.508 279.438 298.794 279.345 299.061C279.252 299.329 279.116 299.571 278.945 299.776C278.773 299.98 278.57 300.142 278.346 300.253C278.122 300.363 277.882 300.419 277.64 300.419Z" fill="#E4E4E4"/>
</g>
<defs>
<clipPath id="clip0_66_327">
<rect width="497" height="354" fill="white"/>
</clipPath>
</defs>
</svg>
